# xmcd
#
# Track frame offsets:
#	150
#	17605
#	41957
#	59810
#	74577
#	92056
#	115359
#	137019
#	156496
#	179137
#	195033
#	215831
#
# Disc length: 3116 seconds
#
# Revision: 0
# Processed by: cddbd v1.5.1PL0 Copyright (c) Steve Scherf et al.
# Submitted via: dBpowerAMP V4.0
#
DISCID=be0c2a0c
DTITLE=Pickin' On Nickelback - The Bluegrass Tribute
DYEAR=2005
DGENRE=Bluegrass
TTITLE0=Someday
TTITLE1=Leader Of Man
TTITLE2=How You Remind Me
TTITLE3=See You At The Show
TTITLE4=Throw Yourself Away
TTITLE5=Never Again
TTITLE6=Believe It Or Not
TTITLE7=Breathe
TTITLE8=Too Bad
TTITLE9=Old Enough
TTITLE10=Feelin' Way Too Damn Good
TTITLE11=Life On This Easy Road (non Nickelback song)
EXTD=
EXTT0=
EXTT1=
EXTT2=
EXTT3=
EXTT4=
EXTT5=
EXTT6=
EXTT7=
EXTT8=
EXTT9=
EXTT10=
EXTT11=
PLAYORDER=
